<svg width="29" height="40" viewBox="0 0 29 40" fill="none" xmlns="http://www.w3.org/2000/svg">
<g clip-path="url(#clip0_8_123)">
<path d="M28.5665 7.86093L25.9848 36.7827L14.3799 40L2.80689 36.7873L0.227905 7.86093H28.5665Z" fill="#264DE4"/>
<path d="M23.7745 34.9411L25.9808 10.2261H14.3972V37.5409L23.7745 34.9411Z" fill="#2965F1"/>
<path d="M6.14017 20.9545L6.45814 24.5021H14.3972V20.9545H6.14017Z" fill="#EBEBEB"/>
<path d="M14.3972 13.7738H14.3849H5.50125L5.82375 17.3216H14.3972V13.7738Z" fill="#EBEBEB"/>
<path d="M14.3972 33.8593V30.1682L14.3816 30.1723L10.4305 29.1055L10.178 26.276H8.25805H6.61664L7.11367 31.8464L14.3809 33.8638L14.3972 33.8593Z" fill="#EBEBEB"/>
<path d="M6.89719 0H11.1941V1.79688H8.69406V3.59375H11.1941V5.39062H6.89719V0Z" fill="black"/>
<path d="M12.0534 0H16.3503V1.5625H13.8503V1.875H16.3503V5.46875H12.0534V3.82812H14.5534V3.51562H12.0534V0Z" fill="black"/>
<path d="M17.2097 0H21.5066V1.5625H19.0066V1.875H21.5066V5.46875H17.2097V3.82812H19.7097V3.51562H17.2097V0Z" fill="black"/>
<path d="M18.7535 24.5021L18.3417 29.1032L14.3849 30.1712V33.8621L21.6579 31.8464L21.7112 31.247L22.5449 21.9071L22.6315 20.9545L23.2719 13.7738H14.3849V17.3216H19.384L19.0612 20.9545H14.3849V24.5021H18.7535Z" fill="white"/>
</g>
<defs>
<clipPath id="clip0_8_123">
<rect width="28.3386" height="40" fill="white" transform="translate(0.227905)"/>
</clipPath>
</defs>
</svg>
