<svg width="28" height="40" viewBox="0 0 28 40" fill="none" xmlns="http://www.w3.org/2000/svg">
<g clip-path="url(#clip0_8_135)">
<path d="M7.23586 39.9999C10.9159 39.9999 13.9025 37.0133 13.9025 33.3333V26.6667H7.23586C3.55585 26.6667 0.569183 29.6533 0.569183 33.3333C0.569183 37.0133 3.55585 39.9999 7.23586 39.9999Z" fill="#0ACF83"/>
<path d="M0.569183 20C0.569183 16.32 3.55585 13.3333 7.23586 13.3333H13.9025V26.6666H7.23586C3.55585 26.6666 0.569183 23.68 0.569183 20Z" fill="#A259FF"/>
<path d="M0.569183 6.66666C0.569183 2.98666 3.55585 0 7.23586 0H13.9025V13.3333H7.23586C3.55585 13.3333 0.569183 10.3467 0.569183 6.66666Z" fill="#F24E1E"/>
<path d="M13.9025 0H20.5692C24.2492 0 27.2359 2.98666 27.2359 6.66666C27.2359 10.3467 24.2492 13.3333 20.5692 13.3333H13.9025V0Z" fill="#FF7262"/>
<path d="M27.2359 20C27.2359 23.68 24.2492 26.6666 20.5692 26.6666C16.8892 26.6666 13.9025 23.68 13.9025 20C13.9025 16.32 16.8892 13.3333 20.5692 13.3333C24.2492 13.3333 27.2359 16.32 27.2359 20Z" fill="#1ABCFE"/>
</g>
<defs>
<clipPath id="clip0_8_135">
<rect width="26.672" height="40" fill="white" transform="translate(0.566528)"/>
</clipPath>
</defs>
</svg>
