<svg width="41" height="40" viewBox="0 0 41 40" fill="none" xmlns="http://www.w3.org/2000/svg">
<path d="M4.39679 29.436L5.83435 30.266L21.8494 2.52802L20.4118 1.69802L4.39679 29.436Z" fill="#E535AB"/>
<path d="M36.0976 27.22H4.06759V28.88H36.0976V27.22Z" fill="#E535AB"/>
<path d="M4.70138 28.1526L20.7224 37.4026L21.5524 35.965L5.53138 26.715L4.70138 28.1526Z" fill="#E535AB"/>
<path d="M18.6188 4.04468L34.6398 13.2947L35.4698 11.8571L19.4488 2.60712L18.6188 4.04468Z" fill="#E535AB"/>
<path d="M4.70582 11.8508L5.53582 13.2884L21.5568 4.03835L20.7268 2.60079L4.70582 11.8508Z" fill="#E535AB"/>
<path d="M18.3294 2.52832L34.3444 30.2663L35.782 29.4363L19.767 1.69832L18.3294 2.52832Z" fill="#E535AB"/>
<path d="M6.99759 10.75H5.33759V29.25H6.99759V10.75Z" fill="#E535AB"/>
<path d="M34.8376 10.75H33.1776V29.25H34.8376V10.75Z" fill="#E535AB"/>
<path d="M19.7148 35.4442L20.4398 36.6999L34.3737 28.6549L33.6487 27.3992L19.7148 35.4442Z" fill="#E535AB"/>
<path d="M37.0376 29.79C36.0776 31.46 33.9376 32.03 32.2676 31.07C30.5976 30.11 30.0276 27.97 30.9876 26.3C31.9476 24.63 34.0876 24.06 35.7576 25.02C37.4376 25.99 38.0076 28.12 37.0376 29.79Z" fill="#E535AB"/>
<path d="M9.17759 13.7C8.21759 15.37 6.07759 15.94 4.40759 14.98C2.73759 14.02 2.16759 11.88 3.12759 10.21C4.08759 8.54 6.22759 7.97 7.89759 8.93C9.56759 9.9 10.1376 12.03 9.17759 13.7Z" fill="#E535AB"/>
<path d="M3.13759 29.79C2.17759 28.12 2.74759 25.99 4.41759 25.02C6.08759 24.06 8.21758 24.63 9.18758 26.3C10.1476 27.97 9.57758 30.1 7.90758 31.07C6.22759 32.03 4.09759 31.46 3.13759 29.79Z" fill="#E535AB"/>
<path d="M30.9976 13.7C30.0376 12.03 30.6076 9.9 32.2776 8.93C33.9476 7.97 36.0776 8.54 37.0476 10.21C38.0076 11.88 37.4376 14.01 35.7676 14.98C34.0976 15.94 31.9576 15.37 30.9976 13.7Z" fill="#E535AB"/>
<path d="M20.0876 39.58C18.1576 39.58 16.5976 38.02 16.5976 36.09C16.5976 34.16 18.1576 32.6 20.0876 32.6C22.0176 32.6 23.5776 34.16 23.5776 36.09C23.5776 38.01 22.0176 39.58 20.0876 39.58Z" fill="#E535AB"/>
<path d="M20.0876 7.40002C18.1576 7.40002 16.5976 5.84002 16.5976 3.91001C16.5976 1.98001 18.1576 0.420013 20.0876 0.420013C22.0176 0.420013 23.5776 1.98001 23.5776 3.91001C23.5776 5.84002 22.0176 7.40002 20.0876 7.40002Z" fill="#E535AB"/>
</svg>
