<svg width="41" height="40" viewBox="0 0 41 40" fill="none" xmlns="http://www.w3.org/2000/svg">
<path d="M8.69666 0H10.4935V1.78125H12.1498V0H13.9467V5.39062H12.1498V3.59375H10.5092V5.39062H8.69666V0ZM16.3217 1.79688H14.7357V0H19.7123V1.79688H18.1185V5.39062H16.3217V1.79688ZM20.5013 0H22.3842L23.5404 1.89844L24.6967 0H26.5795V5.39062H24.7826V2.71875L23.5248 4.65625L22.267 2.71875V5.39062H20.5013V0ZM27.4701 0H29.267V3.60938H31.8139V5.39062H27.4701" fill="black"/>
<path d="M8.63415 36.7969L6.05603 7.85938H34.3998L31.8216 36.7812L20.2045 40" fill="#E44D26"/>
<path d="M20.2279 37.5391V10.2344H31.8138L29.6029 34.9219" fill="#F16529"/>
<path d="M11.3217 13.7734H20.2279V17.3203H15.2123L15.5404 20.9531H20.2279V24.4922H12.2904L11.3217 13.7734ZM12.4467 26.2734H16.0092L16.2592 29.1094L20.2279 30.1719V33.875L12.9467 31.8438" fill="#EBEBEB"/>
<path d="M29.1029 13.7734H20.2123V17.3203H28.7748L29.1029 13.7734ZM28.4545 20.9531H20.2123V24.5H24.5873L24.1732 29.1094L20.2123 30.1719V33.8594L27.4779 31.8438" fill="white"/>
</svg>
