<svg width="90" height="40" viewBox="0 0 90 40" fill="none" xmlns="http://www.w3.org/2000/svg">
<g clip-path="url(#clip0_8_144)">
<path d="M85.0211 32.1389C85.0211 36.3308 81.5914 39.7606 77.3995 39.7606H13.3389C9.14703 39.7606 5.71729 36.3308 5.71729 32.1389V7.86629C5.71729 3.6744 9.14703 0.244659 13.3389 0.244659H77.3995C81.5914 0.244659 85.0211 3.6744 85.0211 7.86629V32.1389Z" fill="url(#paint0_linear_8_144)"/>
<path d="M71.6203 19.4841C74.9684 20.6555 76.6418 22.6625 76.6418 25.5021C76.6418 27.3712 75.9478 28.8547 74.5629 29.952C73.1794 31.05 71.2058 31.7314 68.6369 31.7314C66.0679 31.7314 63.6917 30.987 61.5031 29.7651C61.5268 29.1171 61.6981 28.4061 62.0125 27.6344C62.3269 26.8626 62.699 26.2495 63.1254 25.8017C65.1369 26.847 66.8872 27.3705 68.373 27.3705C69.0752 27.3705 69.6185 27.2527 69.9967 27.0154C70.3755 26.7789 70.5639 26.4615 70.5639 26.0627C70.5639 25.3132 69.9834 24.7526 68.8261 24.379L66.7472 23.5938C63.6022 22.4476 62.0296 20.58 62.0296 17.9858C62.0296 16.0915 62.6902 14.5902 64.0114 13.4795C65.3327 12.3704 67.1134 11.4155 69.3525 11.4155C70.4602 11.4155 71.6798 11.5712 73.0142 11.8826C74.3473 12.1948 75.4424 12.9636 76.2979 13.3861C76.3484 14.0845 76.2082 14.8511 75.8828 15.6859C75.5551 16.5214 75.1533 17.113 74.6736 17.4623C72.5585 16.5148 70.7984 16.041 69.3882 16.041C68.8833 16.041 68.503 16.153 68.236 16.3784C67.9721 16.6031 67.8423 16.8891 67.8423 17.2384C67.8423 17.8367 68.3198 18.3097 69.2769 18.6589L71.6203 19.4841Z" fill="#F6F6F6"/>
<path d="M54.8972 19.4841C58.2454 20.6555 59.918 22.6625 59.918 25.5021C59.918 27.3712 59.224 28.8547 57.8414 29.952C56.4565 31.05 54.4821 31.7314 51.9139 31.7314C49.3472 31.7314 46.968 30.987 44.7801 29.7651C44.8038 29.1171 44.9751 28.4061 45.2901 27.6344C45.6046 26.8626 45.9752 26.2495 46.4031 25.8017C48.4168 26.847 50.1664 27.3705 51.6515 27.3705C52.3543 27.3705 52.8977 27.2527 53.2744 27.0154C53.6518 26.7789 53.8416 26.4615 53.8416 26.0627C53.8416 25.3132 53.2611 24.7526 52.1038 24.379L50.0263 23.5938C46.8805 22.4476 45.3073 20.58 45.3073 17.9858C45.3073 16.0915 45.9679 14.5902 47.2905 13.4795C48.611 12.3704 50.391 11.4155 52.6301 11.4155C53.737 11.4155 54.9596 11.5712 56.2912 11.8826C57.6257 12.1948 58.7193 12.9636 59.5756 13.3861C59.626 14.0845 59.4859 14.8511 59.1604 15.6859C58.8335 16.5214 58.4309 17.113 57.952 17.4623C55.836 16.5148 54.0759 16.041 52.6651 16.041C52.1609 16.041 51.7791 16.153 51.5136 16.3784C51.2504 16.6031 51.1192 16.8891 51.1192 17.2384C51.1192 17.8367 51.5974 18.3097 52.5546 18.6589L54.8972 19.4841Z" fill="#F6F6F6"/>
<path d="M42.7019 19.748C42.7019 18.6018 42.5195 17.5423 42.1548 16.5695C41.7907 15.5968 41.268 14.7627 40.5889 14.0643C39.909 13.366 39.0853 12.818 38.117 12.4191C37.1472 12.021 36.0588 11.4204 34.8511 11.4204C33.4164 11.4204 32.1643 12.0699 31.0952 12.5688C30.0261 13.0671 29.1453 13.7522 28.4535 14.6248C27.7603 15.4981 27.2443 16.5258 26.9047 17.7097C26.5651 18.8938 26.3953 20.1838 26.3953 21.5791C26.3953 23.0234 26.5332 24.3593 26.8105 25.5804C27.0871 26.8 27.5592 27.8587 28.2259 28.7574C28.8931 29.6544 29.7613 30.3522 30.8311 30.8496C31.901 31.3479 33.2288 31.7304 34.814 31.7304C37.7328 31.7304 40.1988 30.8852 42.2124 29.4654C42.0129 28.0211 41.4984 26.8727 40.6718 26.0253C39.6434 26.4115 38.7337 26.688 37.9449 26.8579C37.1553 27.0255 36.4591 27.11 35.8579 27.11C34.6545 27.11 33.7886 26.8038 33.263 26.1855C32.738 25.5694 32.45 24.8406 32.399 23.7337H42.2139C42.5381 22.6854 42.7019 21.2686 42.7019 19.748ZM32.3616 20.0068C32.4363 18.7345 32.6685 17.3733 33.0548 16.8129C33.4418 16.2516 34.0342 15.9714 34.8341 15.9714C35.6579 15.9714 36.2762 16.2695 36.6876 16.8678C37.0999 17.4661 37.3059 18.6716 37.3059 19.5938L37.3066 20.0068H32.3616Z" fill="#F6F6F6"/>
<path d="M86.9971 22.4942C85.9303 23.4261 85.3112 24.7673 85.3112 26.5207V33.051C85.3112 35.2218 84.6438 36.8729 83.1366 38.008C81.6308 39.1416 79.8752 39.7028 77.8712 39.7569L76.6835 39.748V36.494C77.7304 36.1885 78.1603 35.8335 78.577 35.4301C79.3318 34.7481 79.91 33.6381 79.91 32.0968V26.8247C79.9382 25.0327 80.0761 23.6285 80.7285 22.6143C81.3832 21.6 82.6576 20.7133 84.5519 19.9474C82.4597 18.9895 81.0547 17.7387 80.3385 16.1959C79.9174 15.2795 79.9092 14.0429 79.9092 12.4874V7.65267C79.9092 6.05565 79.3865 4.93696 78.7437 4.29854C78.3256 3.88186 77.8392 3.54899 76.6819 3.2977V0.243065C78.0973 0.25789 78.812 0.241666 79.6364 0.243065C80.9057 0.232715 81.9689 0.926703 82.8941 1.6495C83.9017 2.44204 84.6178 3.51346 85.0375 4.86199C85.2762 5.6412 85.3103 6.38563 85.3103 7.09435V12.6861C85.3103 14.6611 85.8938 16.1291 86.891 17.0877C87.4531 17.6438 88.2464 18.1523 89.6083 18.6114V21.1373C88.4014 21.471 87.6437 21.9233 86.9971 22.4942Z" fill="#F6F6F6" stroke="#404040" stroke-miterlimit="10"/>
<path d="M11.9203 0.244755V0.249137C11.5148 0.246899 11.1477 0.245409 10.8542 0.246155C9.58413 0.23506 8.52101 0.929044 7.59653 1.65259C6.58749 2.44513 5.7238 3.47944 5.45322 4.86508C5.299 5.67767 5.33164 6.38788 5.33164 7.09743V12.6891C5.33164 14.6635 4.5969 16.1307 3.60045 17.0909C3.03914 17.6469 1.84101 18.1547 0.478302 18.6136V21.1395C1.68604 21.4725 2.84865 21.9232 3.49359 22.4956C4.56119 23.4283 5.3307 24.7703 5.3307 26.5235V33.0538C5.3307 35.2232 5.84828 36.8758 7.35401 38.0093C8.85984 39.1422 10.6147 39.7056 12.6187 39.7605L13.9599 39.7515V36.4953C12.9137 36.1891 12.3326 35.8339 11.9136 35.4321C11.1596 34.7492 10.7326 33.6401 10.7326 32.0995V26.8267C10.7037 25.0333 10.4145 23.6305 9.76138 22.6155C9.10823 21.6027 7.83373 20.7145 5.93723 19.9494C8.03028 18.9908 9.43448 17.7407 10.1507 16.1986C10.5726 15.2815 10.7327 14.0448 10.7327 12.4894V7.65473C10.7327 6.05772 11.1033 4.93902 11.7454 4.29995C12.0939 3.95301 12.7136 3.66751 13.5745 3.43627L14.9357 3.44578C14.9357 2.27413 14.9357 1.5407 14.9357 0.244476H11.9204V0.244755H11.9203Z" fill="#F6F6F6" stroke="#404040" stroke-miterlimit="10"/>
<path d="M24.4701 26.7379H23.4507C22.3423 26.7379 21.9249 26.1552 21.9249 24.9845V3.46984C21.9249 2.17613 21.5513 1.26788 21.073 0.744522C20.5947 0.222564 19.7644 0.227786 18.5819 0.227786H16.2798L16.0085 0.222565V0.244754L16.0062 3.4469V26.0255C16.0062 27.8212 16.4096 29.135 17.1272 29.9713C17.8456 30.8061 19.0593 31.2228 20.7704 31.2228C21.9537 31.2228 23.3001 31.0982 24.8096 30.8483C24.8852 30.5962 24.923 30.0565 24.923 29.2283C24.923 28.398 24.7719 27.5698 24.4701 26.7379Z" fill="#F6F6F6"/>
</g>
<defs>
<linearGradient id="paint0_linear_8_144" x1="45.3692" y1="0.244658" x2="45.3692" y2="39.7606" gradientUnits="userSpaceOnUse">
<stop offset="0.1497" stop-color="#2A4F84"/>
<stop offset="0.3884" stop-color="#294E82"/>
<stop offset="1" stop-color="#172E4E"/>
</linearGradient>
<clipPath id="clip0_8_144">
<rect width="89.6096" height="40" fill="white" transform="translate(0.238525)"/>
</clipPath>
</defs>
</svg>
