<svg width="37" height="40" viewBox="0 0 37 40" fill="none" xmlns="http://www.w3.org/2000/svg">
<g clip-path="url(#clip0_8_114)">
<path d="M18.5117 39.9258C17.9615 39.9258 17.448 39.7791 16.9711 39.5223L12.0927 36.6246C11.3591 36.2211 11.7259 36.0744 11.946 36.0011C12.9364 35.6709 13.1198 35.5976 14.1468 35.0107C14.2568 34.9374 14.4036 34.974 14.5136 35.0474L18.2549 37.2848C18.4016 37.3582 18.585 37.3582 18.6951 37.2848L33.3302 28.8119C33.477 28.7385 33.5503 28.5918 33.5503 28.4084V11.4991C33.5503 11.3157 33.477 11.1689 33.3302 11.0956L18.6951 2.65927C18.5484 2.58591 18.365 2.58591 18.2549 2.65927L3.61974 11.0956C3.47302 11.1689 3.39966 11.3523 3.39966 11.4991V28.4084C3.39966 28.5551 3.47302 28.7385 3.61974 28.8119L7.61782 31.1227C9.78192 32.2231 11.1391 30.9393 11.1391 29.6555V12.9663C11.1391 12.7462 11.3225 12.5261 11.5792 12.5261H13.4499C13.67 12.5261 13.89 12.7095 13.89 12.9663V29.6555C13.89 32.5532 12.3128 34.2404 9.56184 34.2404C8.71821 34.2404 8.05798 34.2404 6.18732 33.3234L2.33595 31.1227C1.38228 30.5725 0.79541 29.5454 0.79541 28.4451V11.5357C0.79541 10.4354 1.38228 9.40833 2.33595 8.85813L16.9711 0.385136C17.8881 -0.128379 19.1352 -0.128379 20.0522 0.385136L34.6874 8.85813C35.6411 9.40833 36.2279 10.4354 36.2279 11.5357V28.4451C36.2279 29.5454 35.6411 30.5725 34.6874 31.1227L20.0522 39.5957C19.5754 39.8157 19.0252 39.9258 18.5117 39.9258ZM23.0233 28.2983C16.6043 28.2983 15.2839 25.364 15.2839 22.8698C15.2839 22.6497 15.4673 22.4296 15.724 22.4296H17.6314C17.8514 22.4296 18.0348 22.5763 18.0348 22.7964C18.3283 24.7404 19.1719 25.6941 23.0599 25.6941C26.141 25.6941 27.4615 24.9972 27.4615 23.3466C27.4615 22.3929 27.0947 21.696 22.2897 21.2192C18.2916 20.8157 15.7974 19.9354 15.7974 16.7443C15.7974 13.7732 18.2916 12.0126 22.4731 12.0126C27.1681 12.0126 29.4789 13.6265 29.7723 17.1477C29.7723 17.2578 29.7356 17.3678 29.6623 17.4778C29.5889 17.5512 29.4789 17.6246 29.3688 17.6246H27.4615C27.2781 17.6246 27.0947 17.4778 27.058 17.2944C26.6179 15.2771 25.4808 14.6168 22.4731 14.6168C19.0985 14.6168 18.6951 15.7906 18.6951 16.6709C18.6951 17.7346 19.1719 18.0647 23.7202 18.6516C28.2318 19.2385 30.3592 20.0821 30.3592 23.2365C30.3225 26.4644 27.6816 28.2983 23.0233 28.2983Z" fill="#539E43"/>
</g>
<defs>
<clipPath id="clip0_8_114">
<rect width="35.4325" height="40" fill="white" transform="translate(0.79541)"/>
</clipPath>
</defs>
</svg>
