<svg width="40" height="40" viewBox="0 0 40 40" fill="none" xmlns="http://www.w3.org/2000/svg">
<path d="M29.683 29.1189C29.9374 26.9993 29.8612 26.6885 31.44 27.0318L31.8408 27.067C33.0547 27.1223 34.6428 26.8718 35.5757 26.4384C37.5841 25.5065 38.775 23.9506 36.7946 24.3594C32.2774 25.2913 31.9669 23.7617 31.9669 23.7617C36.7368 16.6844 38.7308 7.70042 37.0096 5.50132C32.3153 -0.497016 24.1894 2.33946 24.0534 2.41311L24.0101 2.4211C23.1176 2.23591 22.1187 2.12527 20.9966 2.10712C18.9525 2.07353 17.4013 2.64302 16.2247 3.53547C16.2247 3.53547 1.72862 -2.43674 2.40301 11.0461C2.54644 13.9143 6.51426 32.7492 11.2466 27.0602C12.9763 24.9799 14.6478 23.221 14.6478 23.221C15.4779 23.7724 16.4716 24.0537 17.5139 23.9527L17.5944 23.884C17.5692 24.1423 17.5803 24.3949 17.6267 24.694C16.4078 26.0561 16.7659 26.2953 14.3286 26.797C11.8626 27.3052 13.3114 28.21 14.257 28.4465C15.4037 28.7333 18.0564 29.1395 19.8493 26.6302L19.7779 26.9165C20.2561 27.2991 20.2238 29.6664 20.2916 31.3578C20.3595 33.0493 20.4728 34.6277 20.8175 35.5583C21.1623 36.4888 21.5692 38.8858 24.7724 38.1993C27.4496 37.6256 29.4965 36.7999 29.683 29.1188" fill="black"/>
<path d="M29.683 29.1189C29.9374 26.9993 29.8612 26.6885 31.44 27.0318L31.8408 27.067C33.0547 27.1223 34.6428 26.8718 35.5757 26.4384C37.5841 25.5065 38.775 23.9506 36.7946 24.3594C32.2774 25.2913 31.9669 23.7617 31.9669 23.7617C36.7368 16.6844 38.7308 7.70042 37.0096 5.50132C32.3153 -0.497016 24.1894 2.33946 24.0534 2.41311L24.0101 2.4211C23.1176 2.23591 22.1187 2.12527 20.9966 2.10712C18.9525 2.07353 17.4013 2.64302 16.2247 3.53547C16.2247 3.53547 1.72862 -2.43674 2.40301 11.0461C2.54644 13.9143 6.51426 32.7492 11.2466 27.0602C12.9763 24.9799 14.6478 23.221 14.6478 23.221C15.4779 23.7724 16.4716 24.0537 17.5139 23.9527L17.5944 23.884C17.5692 24.1423 17.5803 24.3949 17.6267 24.694C16.4078 26.0561 16.7659 26.2953 14.3286 26.797C11.8626 27.3052 13.3114 28.21 14.257 28.4465C15.4037 28.7333 18.0564 29.1395 19.8493 26.6302L19.7779 26.9165C20.2561 27.2991 20.2238 29.6664 20.2916 31.3578C20.3595 33.0493 20.4728 34.6277 20.8175 35.5583C21.1623 36.4888 21.5692 38.8858 24.7724 38.1993C27.4496 37.6256 29.4965 36.7999 29.683 29.1188" stroke="black"/>
<path d="M36.7951 24.3593C32.2775 25.2911 31.9669 23.7616 31.9669 23.7616C36.7368 16.6838 38.7308 7.69962 37.01 5.5008C32.3156 -0.49719 24.1894 2.33947 24.0538 2.41311L24.0101 2.42093C23.1176 2.23565 22.1187 2.12527 20.9961 2.10695C18.9519 2.07345 17.4014 2.64285 16.2247 3.53512C16.2247 3.53512 1.72836 -2.43682 2.40257 11.046C2.546 13.9143 6.51373 32.7493 11.2463 27.0602C12.976 24.9799 14.6473 23.221 14.6473 23.221C15.4774 23.7724 16.4712 24.0537 17.513 23.9527L17.5939 23.884C17.5688 24.1423 17.5803 24.3949 17.6263 24.694C16.4072 26.0561 16.7654 26.2953 14.3282 26.797C11.8621 27.3052 13.3109 28.2101 14.2567 28.4465C15.4034 28.7333 18.0563 29.1395 19.8489 26.6302L19.7774 26.9165C20.2551 27.2991 20.5905 29.4053 20.5343 31.3144C20.4781 33.2237 20.4405 34.5345 20.8169 35.5583C21.1933 36.5822 21.5685 38.8858 24.7724 38.1993C27.4495 37.6256 28.8368 36.1389 29.0298 33.659C29.1668 31.8959 29.4767 32.1565 29.4963 30.5802L29.7449 29.834C30.0316 27.4441 29.7904 26.673 31.4398 27.0317L31.8406 27.0669C33.0546 27.1221 34.6434 26.8716 35.5759 26.4382C37.5839 25.5063 38.7748 23.9505 36.7949 24.3593H36.7951Z" fill="#336791"/>
<path d="M20.0428 25.7292C19.9185 30.1763 20.0741 34.6543 20.5092 35.7426C20.9446 36.831 21.8764 38.9478 25.0806 38.2614C27.7575 37.6875 28.7315 36.5769 29.1541 34.1255C29.4654 32.3219 30.0655 27.313 30.1425 26.2868" stroke="white" stroke-linecap="round" stroke-linejoin="round"/>
<path d="M16.2024 3.43577C16.2024 3.43577 1.69614 -2.49314 2.37052 10.9896C2.51395 13.858 6.48195 32.6935 11.2144 27.0042C12.9438 24.9237 14.5079 23.2919 14.5079 23.2919" stroke="white" stroke-linecap="round" stroke-linejoin="round"/>
<path d="M24.0379 2.35366C23.5358 2.5111 32.1072 -0.779731 36.9784 5.44466C38.6991 7.64358 36.7051 16.6278 31.9353 23.7057" stroke="white" stroke-linecap="round" stroke-linejoin="round"/>
<path d="M31.9352 23.7057C31.9352 23.7057 32.246 25.2357 36.7638 24.3032C38.7432 23.8944 37.5519 25.4504 35.5444 26.3828C33.8968 27.1474 30.203 27.3434 30.1427 26.2867C29.9874 23.5606 32.0868 24.3888 31.9353 23.7057C31.7983 23.0905 30.8595 22.4867 30.2384 20.981C29.6962 19.6668 22.8025 9.58868 32.1502 11.0855C32.4927 11.0146 29.7122 2.19406 20.9641 2.05063C12.2179 1.9072 12.5048 12.8065 12.5048 12.8065" stroke="white" stroke-linecap="round" stroke-linejoin="bevel"/>
<path d="M17.5944 24.638C16.3751 26.0001 16.7337 26.2393 14.2963 26.7411C11.8302 27.2494 13.2791 28.1541 14.2248 28.3905C15.3715 28.6774 18.0244 29.0836 19.8169 26.5737C20.3628 25.8095 19.8137 24.5902 19.0638 24.2793C18.7015 24.1292 18.2171 23.9412 17.5944 24.638V24.638Z" stroke="white" stroke-linecap="round" stroke-linejoin="round"/>
<path d="M17.5146 24.6142C17.3917 23.8134 17.7777 22.8604 18.1914 21.7455C18.8131 20.0727 20.2474 18.3996 19.1 13.0933C18.2448 9.139 12.5083 12.2703 12.5047 12.8065C12.5012 13.3425 12.7642 15.5242 12.4089 18.0647C11.9453 21.3799 14.5183 24.1837 17.4813 23.8968" stroke="white" stroke-linecap="round" stroke-linejoin="round"/>
<path d="M16.1497 12.7261C16.1238 12.9092 16.4849 13.3979 16.9558 13.4632C17.4259 13.5287 17.8283 13.1469 17.8538 12.9639C17.8793 12.7808 17.5186 12.5791 17.0475 12.5135C16.5772 12.4479 16.1747 12.5434 16.1498 12.7261H16.1497Z" fill="white" stroke="white"/>
<path d="M30.4676 12.3528C30.4931 12.5359 30.1325 13.0246 29.6615 13.0899C29.1911 13.1554 28.7887 12.7735 28.7629 12.5906C28.7381 12.4075 29.0988 12.2058 29.5693 12.1402C30.0399 12.0746 30.4421 12.1701 30.4676 12.3529V12.3528Z" fill="white" stroke="white"/>
<path d="M32.1502 11.0855C32.2277 12.5219 31.8408 13.5003 31.792 15.0294C31.7198 17.252 32.8517 19.796 31.1462 22.3431" stroke="white" stroke-linecap="round" stroke-linejoin="round"/>
</svg>
