<svg width="36" height="40" viewBox="0 0 36 40" fill="none" xmlns="http://www.w3.org/2000/svg">
<g clip-path="url(#clip0_8_3)">
<path d="M35.3134 20.0036C35.3134 17.6781 32.4012 15.4743 27.9362 14.1076C28.9666 9.55681 28.5087 5.93622 26.4909 4.77705C26.0258 4.50515 25.482 4.37636 24.8881 4.37636V5.97199C25.2172 5.97199 25.482 6.03639 25.7038 6.15803C26.6769 6.71615 27.0991 8.84128 26.7699 11.5746C26.6912 12.2472 26.5624 12.9556 26.405 13.6783C25.0026 13.3348 23.4713 13.0701 21.8614 12.8983C20.8954 11.5746 19.8937 10.3725 18.8848 9.32068C21.2174 7.15262 23.4069 5.96484 24.8952 5.96484V4.3692C22.9275 4.3692 20.3516 5.77164 17.7471 8.20445C15.1425 5.78596 12.5666 4.39782 10.5989 4.39782V5.99346C12.0801 5.99346 14.2767 7.17409 16.6094 9.32784C15.6076 10.3797 14.6059 11.5746 13.6542 12.8983C12.0371 13.0701 10.5059 13.3348 9.10344 13.6854C8.93887 12.9699 8.81723 12.2758 8.73137 11.6104C8.39507 8.87705 8.81008 6.75192 9.77604 6.18665C9.9907 6.05786 10.2698 6.00061 10.5989 6.00061V4.40498C9.99786 4.40498 9.45405 4.53377 8.9818 4.80568C6.97116 5.96484 6.52037 9.57827 7.55789 14.1147C3.10729 15.4886 0.209381 17.6853 0.209381 20.0036C0.209381 22.3291 3.1216 24.5329 7.58652 25.8996C6.55615 30.4503 7.01409 34.0709 9.03189 35.2301C9.49699 35.502 10.0408 35.6308 10.6418 35.6308C12.6096 35.6308 15.1855 34.2283 17.79 31.7955C20.3945 34.214 22.9705 35.6022 24.9382 35.6022C25.5392 35.6022 26.083 35.4734 26.5553 35.2015C28.5659 34.0423 29.0167 30.4289 27.9792 25.8924C32.4155 24.5257 35.3134 22.3219 35.3134 20.0036ZM25.9972 15.231C25.7324 16.154 25.4033 17.1057 25.0312 18.0573C24.7378 17.4849 24.4301 16.9125 24.0938 16.3401C23.7647 15.7676 23.4141 15.2095 23.0635 14.6657C24.0795 14.816 25.0598 15.002 25.9972 15.231ZM22.72 22.8514C22.1619 23.8174 21.5895 24.7332 20.9956 25.5847C19.9294 25.6777 18.849 25.7278 17.7614 25.7278C16.6809 25.7278 15.6005 25.6777 14.5415 25.5919C13.9476 24.7404 13.368 23.8317 12.8099 22.8729C12.2661 21.9355 11.7724 20.9839 11.3216 20.025C11.7652 19.0662 12.2661 18.1074 12.8027 17.1701C13.3609 16.2041 13.9333 15.2882 14.5272 14.4367C15.5933 14.3437 16.6738 14.2936 17.7614 14.2936C18.8418 14.2936 19.9223 14.3437 20.9813 14.4296C21.5752 15.2811 22.1547 16.1898 22.7129 17.1486C23.2567 18.0859 23.7504 19.0376 24.2012 19.9964C23.7504 20.9552 23.2567 21.914 22.72 22.8514ZM25.0312 21.9212C25.4176 22.88 25.7467 23.8388 26.0186 24.769C25.0813 24.998 24.0938 25.1912 23.0706 25.3414C23.4212 24.7905 23.7719 24.2252 24.101 23.6456C24.4301 23.0732 24.7378 22.4936 25.0312 21.9212ZM17.7757 29.5559C17.1102 28.869 16.4448 28.1034 15.7865 27.2662C16.4305 27.2948 17.0888 27.3163 17.7542 27.3163C18.4268 27.3163 19.0923 27.302 19.7434 27.2662C19.0994 28.1034 18.434 28.869 17.7757 29.5559ZM12.4521 25.3414C11.4361 25.1912 10.4558 25.0051 9.51845 24.7762C9.7832 23.8531 10.1123 22.9015 10.4844 21.9498C10.7778 22.5222 11.0855 23.0947 11.4218 23.6671C11.7581 24.2395 12.1015 24.7976 12.4521 25.3414ZM17.7399 10.4512C18.4054 11.1381 19.0708 11.9038 19.7291 12.7409C19.0851 12.7123 18.4268 12.6908 17.7614 12.6908C17.0888 12.6908 16.4233 12.7051 15.7722 12.7409C16.4162 11.9038 17.0816 11.1381 17.7399 10.4512ZM12.445 14.6657C12.0944 15.2167 11.7438 15.7819 11.4146 16.3615C11.0855 16.9339 10.7778 17.5064 10.4844 18.0788C10.098 17.12 9.76889 16.1612 9.49699 15.231C10.4343 15.0092 11.4218 14.816 12.445 14.6657ZM5.96941 23.6242C3.43643 22.5437 1.79786 21.127 1.79786 20.0036C1.79786 18.8802 3.43643 17.4563 5.96941 16.383C6.58477 16.1182 7.25737 15.8821 7.95144 15.6603C8.35929 17.0627 8.89594 18.5224 9.56138 20.0179C8.90309 21.5062 8.3736 22.9587 7.9729 24.354C7.26453 24.1322 6.59193 23.8889 5.96941 23.6242ZM9.81898 33.8491C8.84585 33.291 8.42369 31.1659 8.75283 28.4325C8.83154 27.7599 8.96034 27.0516 9.11776 26.3289C10.5202 26.6723 12.0514 26.9371 13.6614 27.1088C14.6274 28.4325 15.6291 29.6346 16.638 30.6865C14.3054 32.8545 12.1158 34.0423 10.6275 34.0423C10.3055 34.0352 10.0336 33.9708 9.81898 33.8491ZM26.7914 28.3968C27.1277 31.1301 26.7127 33.2552 25.7467 33.8205C25.5321 33.9493 25.253 34.0065 24.9239 34.0065C23.4427 34.0065 21.246 32.8259 18.9134 30.6722C19.9151 29.6203 20.9169 28.4254 21.8685 27.1017C23.4856 26.9299 25.0169 26.6652 26.4193 26.3146C26.5839 27.0373 26.7127 27.7313 26.7914 28.3968ZM29.5462 23.6242C28.9308 23.8889 28.2582 24.125 27.5642 24.3469C27.1563 22.9444 26.6197 21.4847 25.9542 19.9893C26.6125 18.501 27.142 17.0484 27.5427 15.6531C28.2511 15.875 28.9237 16.1182 29.5533 16.383C32.0863 17.4634 33.7249 18.8802 33.7249 20.0036C33.7177 21.127 32.0792 22.5509 29.5462 23.6242Z" fill="#61DAFB"/>
<path d="M17.7542 23.2736C19.5602 23.2736 21.0242 21.8096 21.0242 20.0036C21.0242 18.1977 19.5602 16.7336 17.7542 16.7336C15.9483 16.7336 14.4843 18.1977 14.4843 20.0036C14.4843 21.8096 15.9483 23.2736 17.7542 23.2736Z" fill="#61DAFB"/>
</g>
<defs>
<clipPath id="clip0_8_3">
<rect width="35.104" height="40" fill="white" transform="translate(0.209381)"/>
</clipPath>
</defs>
</svg>
