<svg width="41" height="40" viewBox="0 0 41 40" fill="none" xmlns="http://www.w3.org/2000/svg">
<path d="M19.9535 9.05997C13.4935 9.26529 11.5735 13.88 11.1335 16.38C11.7069 15.4533 13.5135 13.42 16.1735 13.42C19.2735 13.42 21.6335 16.88 23.0735 17.96C24.823 19.2721 28.3385 21.0046 32.9535 19.6C36.6335 18.48 38.3402 14.5733 38.7135 12.72C36.9335 15.14 34.2335 16.5935 30.8935 14.88C28.5935 13.7 26.8735 8.84001 19.9535 9.05997Z" fill="#07B6D5"/>
<path d="M10.8135 20.0399C4.35353 20.2452 2.43353 24.8599 1.99353 27.3599C2.56686 26.4333 4.37353 24.4 7.03353 24.4C10.1335 24.4 12.4935 27.86 13.9335 28.94C15.683 30.2521 19.1985 31.9846 23.8135 30.58C27.4935 29.46 29.2002 25.5533 29.5735 23.6999C27.7935 26.1199 25.0935 27.5735 21.7535 25.8599C19.4535 24.6799 17.7335 19.82 10.8135 20.0399Z" fill="#07B6D5"/>
</svg>
