<svg width="37" height="37" viewBox="0 0 37 37" fill="none" xmlns="http://www.w3.org/2000/svg">
<g clip-path="url(#clip0_8_422)">
<path d="M32.6024 0.907715H3.60144C1.65766 0.907715 0.0819092 2.48346 0.0819092 4.42725V33.4282C0.0819092 35.372 1.65766 36.9477 3.60144 36.9477H32.6024C34.5462 36.9477 36.1219 35.372 36.1219 33.4282V4.42725C36.1219 2.48346 34.5462 0.907715 32.6024 0.907715Z" fill="#3178C6"/>
<path fill-rule="evenodd" clip-rule="evenodd" d="M22.3957 29.5568V33.0763C22.9659 33.3719 23.6628 33.5902 24.4371 33.738C25.2114 33.8858 26.056 33.9562 26.9007 33.9562C27.7454 33.9562 28.5197 33.8788 29.294 33.7169C30.0683 33.555 30.7018 33.2875 31.2649 32.9426C31.8351 32.5695 32.3208 32.0979 32.6024 31.4644C32.8839 30.8308 33.1021 30.1269 33.1021 29.2119C33.1021 28.5713 33.0036 28.0152 32.8135 27.5225C32.6235 27.0298 32.349 26.6074 31.9689 26.2555C31.6099 25.8824 31.1946 25.5515 30.7018 25.27C30.2091 24.9884 29.646 24.6928 29.0124 24.4253C28.5479 24.2352 28.1678 24.0522 27.7454 23.8692C27.3794 23.6862 27.0626 23.5032 26.8303 23.3202C26.5699 23.1301 26.3728 22.933 26.232 22.7289C26.0912 22.5177 26.0208 22.2854 26.0208 22.025C26.0208 21.7856 26.0835 21.5674 26.2109 21.3703C26.3383 21.1732 26.5136 21.0114 26.7388 20.8706C26.9641 20.7298 27.2456 20.6242 27.5835 20.5468C27.9144 20.4693 28.2804 20.4341 28.7098 20.4341C29.0054 20.4341 29.3151 20.456 29.6248 20.5003C29.9486 20.5447 30.2795 20.6129 30.6103 20.7044C30.9412 20.796 31.265 20.9086 31.5958 21.0494C31.9055 21.1901 32.1941 21.352 32.4405 21.5351V18.2267C31.9055 18.0226 31.3142 17.8677 30.6807 17.7692C30.0472 17.6706 29.3433 17.6213 28.4986 17.6213C27.6539 17.6213 26.8796 17.7128 26.1053 17.8888C25.331 18.0648 24.6975 18.3464 24.1344 18.7335C23.5642 19.1136 23.1489 19.5782 22.797 20.2117C22.4661 20.803 22.3042 21.4787 22.3042 22.3234C22.3042 23.3793 22.6069 24.2944 23.2193 24.9983C23.8247 25.7726 24.7679 26.3357 25.9645 26.8988C26.4502 27.0959 26.8796 27.293 27.302 27.4831C27.7243 27.6731 28.0763 27.8702 28.3578 28.0743C28.6605 28.2785 28.8998 28.5037 29.0617 28.7431C29.2377 28.9824 29.3292 29.2639 29.3292 29.5877C29.3292 29.813 29.2743 30.0242 29.1673 30.2213C29.0603 30.4184 28.8928 30.5873 28.6675 30.7281C28.4423 30.8689 28.1678 30.9815 27.8228 31.0659C27.492 31.1434 27.1189 31.1856 26.6262 31.1856C25.8519 31.1856 25.0776 31.0519 24.3737 30.7844C23.5994 30.5169 22.8955 30.1157 22.262 29.5877L22.3957 29.5568ZM16.4829 20.8987H20.9879V18.0127H8.388V20.8987H12.893V33.7802H16.4829V20.8987Z" fill="white"/>
</g>
<defs>
<clipPath id="clip0_8_422">
<rect width="36.04" height="36.04" fill="white" transform="translate(0.0819092 0.907715)"/>
</clipPath>
</defs>
</svg>
